<?xml version="1.0"?><svg xmlns="http://www.w3.org/2000/svg" width="56" height="64" viewBox="0 0 56 64"><path fill="#30C85A" d="m51 55.3h-46c-2.8 0-5-2.2-5-5v-36.6c0-2.8 2.2-5 5-5h46c2.8 0 5 2.2 5 5v36.7c0 2.7-2.3 4.9-5 4.9z"></path><path opacity=".5" fill="#fff" d="m0 21.5v-7.8c0-2.8 2.2-5 5-5h46c2.8 0 5 2.2 5 5v7.8h-56z"></path><path fill="#2AA848" d="m0 21.5h56v1h-56z"></path><path fill="#fff" d="m46.1 43.8c-1.3 0-2.2-0.4-2.6-1.3v5.3h-3.3v-14h3.3v1.3c0.5-1 1.5-1.6 2.6-1.6 2.8 0 4.7 2.2 4.7 5.1s-1.9 5.2-4.7 5.2z m-0.7-7.6c-1.4-0.1-2.6 0.9-2.7 2.3-0.1 1.4 0.9 2.6 2.3 2.7 1.4 0.1 2.6-0.9 2.7-2.3v-0.2c0.1-1.3-0.9-2.5-2.3-2.5 0.1 0 0.1 0 0 0z m-9-3.8c-1.1 0-2-0.9-1.9-2 0-1.1 0.9-2 2-1.9 1.1 0 1.9 0.9 1.9 2 0 1-0.9 1.9-2 1.9z m-4.8 10.1c-0.5 0.4-1.1 0.8-1.7 1-1.4 0.4-2.9 0.4-4.3 0-0.6-0.2-1.2-0.5-1.7-1-0.4-0.4-0.7-0.9-0.9-1.4-0.2-0.8-0.3-1.6-0.3-2.5v-4.9h3.3v5c-0.1 0.6 0.1 1.3 0.4 1.8 0.6 0.7 1.7 0.7 2.4 0.1l0.1-0.1c0.3-0.5 0.5-1.2 0.4-1.8v-5h3.3v4.9c0 0.8-0.1 1.7-0.3 2.5 0 0.5-0.3 1-0.7 1.4z m-12.8 4l-3.1-3.1c-0.8 0.3-1.7 0.4-2.6 0.4-4.2 0-7.7-3.4-7.7-7.7 0-4.2 3.4-7.7 7.7-7.7s7.7 3.4 7.7 7.7c0 2.2-0.9 4.3-2.5 5.8l2.5 2.5-2 2.1z m-1.5-10.4c0-2.4-1.6-4.6-4.2-4.6s-4.2 2.2-4.2 4.6c0 2.4 1.6 4.6 4.2 4.6h0.3v-1.6h2l0.5 0.5c0.9-0.9 1.4-2.2 1.4-3.5z m20.8 7h-3.3v-9.3h3.3v9.3z"></path></svg>